<?xml version="1.0" encoding="UTF-8" standalone="no"?>
<!-- Created with Inkscape (http://www.inkscape.org/) -->

<svg
   width="1000"
   height="1000"
   viewBox="0 0 264.58332 264.58333"
   version="1.1"
   id="svg5"
   inkscape:version="1.1 (c68e22c387, 2021-05-23)"
   sodipodi:docname="pixzu.svg"
   xmlns:inkscape="http://www.inkscape.org/namespaces/inkscape"
   xmlns:sodipodi="http://sodipodi.sourceforge.net/DTD/sodipodi-0.dtd"
   xmlns="http://www.w3.org/2000/svg"
   xmlns:svg="http://www.w3.org/2000/svg">
  <sodipodi:namedview
     id="namedview7"
     pagecolor="#505050"
     bordercolor="#ffffff"
     borderopacity="1"
     inkscape:pageshadow="0"
     inkscape:pageopacity="0"
     inkscape:pagecheckerboard="1"
     inkscape:document-units="mm"
     showgrid="false"
     units="px"
     width="1000mm"
     inkscape:snap-bbox="true"
     inkscape:bbox-paths="true"
     inkscape:bbox-nodes="true"
     inkscape:snap-bbox-midpoints="true"
     inkscape:snap-bbox-edge-midpoints="true"
     inkscape:object-paths="true"
     inkscape:snap-intersection-paths="true"
     inkscape:snap-smooth-nodes="true"
     inkscape:snap-midpoints="true"
     inkscape:snap-object-midpoints="true"
     inkscape:snap-center="true"
     inkscape:snap-text-baseline="true"
     inkscape:snap-page="true"
     inkscape:zoom="0.3895"
     inkscape:cx="-80.872914"
     inkscape:cy="522.4647"
     inkscape:window-width="1920"
     inkscape:window-height="1001"
     inkscape:window-x="-9"
     inkscape:window-y="-9"
     inkscape:window-maximized="1"
     inkscape:current-layer="layer1" />
  <defs
     id="defs2" />
  <g
     inkscape:label="Layer 1"
     inkscape:groupmode="layer"
     id="layer1">
    <path
       style="fill:#e6dfca;stroke-width:4.99999;stroke-linecap:round;stroke-linejoin:round;fill-opacity:1"
       d="M 61.735892,52.917055 V 105.83318 H 79.375515 V 88.194474 l 17.638485,9e-5 v 52.916626 h 17.63888 v 17.63887 h 35.27777 v -17.63887 h 17.63887 l -5.3e-4,-52.916626 17.63962,-9e-5 -2.7e-4,-17.638789 h 17.63887 V 35.277954 h -17.63887 l 2.7e-4,-17.639236 H 149.93035 V 35.278337 H 97.014214 v 17.638718 z"
       id="path1705" />
    <path
       id="rect843"
       style="fill:#000000;stroke-width:1.75467;stroke-linecap:round;stroke-linejoin:round"
       d="m 149.93035,0 v 17.638718 h 17.63872 17.63962 V 0 h -17.63962 z" />
    <rect
       style="fill:#000000;stroke-width:1.75467;stroke-linecap:round;stroke-linejoin:round"
       id="rect843-9"
       width="17.638878"
       height="17.638878"
       x="185.20842"
       y="17.639078" />
    <path
       id="rect843-1"
       style="fill:#000000;stroke-width:1.75467;stroke-linecap:round;stroke-linejoin:round"
       d="m 202.8474,35.278337 v 17.638718 17.6387 h 17.63871 v -17.6387 -17.638718 z" />
    <rect
       style="fill:#000000;stroke-width:1.75467;stroke-linecap:round;stroke-linejoin:round"
       id="rect843-3"
       width="17.638878"
       height="17.638878"
       x="185.20842"
       y="70.555687" />
    <path
       id="rect843-5"
       style="fill:#000000;stroke-width:1.75467;stroke-linecap:round;stroke-linejoin:round"
       d="m 167.56907,88.194474 v 17.638706 17.63872 17.63961 h 17.63962 V 123.4719 105.83318 88.194474 Z" />
    <path
       id="rect843-0"
       style="fill:#000000;stroke-width:1.75467;stroke-linecap:round;stroke-linejoin:round"
       d="m 97.014216,17.638718 v 17.639619 h 17.638714 17.63871 17.63871 V 17.638718 h -17.63871 -17.63871 z" />
    <path
       id="rect843-50"
       style="fill:#000000;stroke-width:1.75467;stroke-linecap:round;stroke-linejoin:round"
       d="M 61.735894,35.278337 V 52.917055 H 79.375515 97.014216 V 35.278337 H 79.375515 Z" />
    <path
       id="rect843-58"
       style="fill:#000000;stroke-width:1.75467;stroke-linecap:round;stroke-linejoin:round"
       d="m 44.097181,52.917055 v 17.6387 17.638719 17.638706 H 61.735894 V 88.194474 70.555755 52.917055 Z" />
    <path
       id="rect843-59"
       style="fill:#000000;stroke-width:1.75467;stroke-linecap:round;stroke-linejoin:round"
       d="M 79.375515,88.194474 V 105.83318 H 61.735894 v 17.63872 h 17.639621 v 17.63961 H 97.014216 V 123.4719 105.83318 88.194474 Z" />
    <rect
       style="fill:#000000;stroke-width:1.75467;stroke-linecap:round;stroke-linejoin:round"
       id="rect843-43"
       width="17.638878"
       height="17.638878"
       x="97.014"
       y="70.555687" />
    <rect
       style="fill:#000000;stroke-width:1.75467;stroke-linecap:round;stroke-linejoin:round"
       id="rect843-08"
       width="17.638878"
       height="17.638878"
       x="97.014"
       y="141.11119" />
    <rect
       style="fill:#000000;stroke-width:1.75467;stroke-linecap:round;stroke-linejoin:round"
       id="rect843-92"
       width="17.638878"
       height="17.638878"
       x="149.93065"
       y="141.11119" />
    <path
       id="rect843-694"
       style="fill:#000000;stroke-width:1.75467;stroke-linecap:round;stroke-linejoin:round"
       d="m 114.65293,158.75023 v 17.63872 h 17.63871 17.63871 v -17.63872 h -17.63871 z" />
    <rect
       style="fill:#000000;stroke-width:1.75467;stroke-linecap:round;stroke-linejoin:round"
       id="rect843-62"
       width="17.638878"
       height="17.638878"
       x="149.93065"
       y="70.555687" />
    <rect
       style="fill:#000000;stroke-width:1.75467;stroke-linecap:round;stroke-linejoin:round"
       id="rect843-09"
       width="17.638878"
       height="17.638878"
       x="149.93065"
       y="176.38895" />
    <rect
       style="fill:#000000;stroke-width:1.75467;stroke-linecap:round;stroke-linejoin:round"
       id="rect843-86"
       width="17.638878"
       height="17.638878"
       x="97.014"
       y="176.38895" />
    <rect
       style="fill:#000000;stroke-width:1.75467;stroke-linecap:round;stroke-linejoin:round"
       id="rect843-582"
       width="17.638878"
       height="17.638878"
       x="167.56953"
       y="194.02782" />
    <path
       id="rect843-26"
       style="fill:#000000;stroke-width:6.63182;stroke-linecap:round;stroke-linejoin:round"
       d="M 700.00195 799.99805 L 700.00195 866.66797 L 700.00195 933.33398 L 700.00195 1000 L 766.66797 1000 L 766.66797 933.33398 L 766.66797 866.66797 L 766.66797 799.99805 L 700.00195 799.99805 z "
       transform="scale(0.26458333)" />
    <path
       id="rect843-65"
       style="fill:#000000;stroke-width:6.63182;stroke-linecap:round;stroke-linejoin:round"
       d="M 233.33203 799.99805 L 233.33203 866.66797 L 233.33203 933.33398 L 233.33398 933.33398 L 233.33398 1000 L 300 1000 L 300 933.33398 L 300.00195 933.33398 L 300.00195 866.66797 L 300.00195 799.99805 L 233.33203 799.99805 z "
       transform="scale(0.26458333)" />
    <rect
       style="fill:#000000;stroke-width:1.75467;stroke-linecap:round;stroke-linejoin:round"
       id="rect843-923"
       width="17.638878"
       height="17.638878"
       x="79.375122"
       y="194.02782" />
    <path
       style="fill:#f2f2f2;fill-opacity:1;stroke-width:4.99999;stroke-linecap:round;stroke-linejoin:round"
       d="m 114.65293,176.38895 -5e-5,17.63888 H 97.014 v 17.63886 H 79.375121 l -1.22e-4,52.91664 H 185.20885 l -1.6e-4,-52.91696 -17.63916,2.6e-4 -10e-6,-17.63885 h -17.63887 v -17.63889 z"
       id="path4544"
       sodipodi:nodetypes="ccccccccccccc" />
  </g>
</svg>
