<?xml version="1.0" encoding="UTF-8" standalone="no"?>
<!-- Created with Inkscape (http://www.inkscape.org/) -->

<svg
   width="452.51828"
   height="726.66968"
   viewBox="0 0 119.729 192.26469"
   version="1.1"
   id="svg8"
   inkscape:version="1.1 (c68e22c387, 2021-05-23)"
   sodipodi:docname="skweezu.svg"
   inkscape:export-filename="C:\Users\piss\Pictures\skweezu.png"
   inkscape:export-xdpi="128"
   inkscape:export-ydpi="128"
   xmlns:inkscape="http://www.inkscape.org/namespaces/inkscape"
   xmlns:sodipodi="http://sodipodi.sourceforge.net/DTD/sodipodi-0.dtd"
   xmlns:xlink="http://www.w3.org/1999/xlink"
   xmlns="http://www.w3.org/2000/svg"
   xmlns:svg="http://www.w3.org/2000/svg"
   xmlns:rdf="http://www.w3.org/1999/02/22-rdf-syntax-ns#"
   xmlns:cc="http://creativecommons.org/ns#"
   xmlns:dc="http://purl.org/dc/elements/1.1/">
  <defs
     id="defs2">
    <linearGradient
       inkscape:collect="always"
       id="linearGradient26821">
      <stop
         style="stop-color:#00ff00;stop-opacity:1;"
         offset="0"
         id="stop26817" />
      <stop
         style="stop-color:#00ff00;stop-opacity:0;"
         offset="1"
         id="stop26819" />
    </linearGradient>
    <inkscape:path-effect
       effect="skeletal"
       id="path-effect916"
       is_visible="true"
       pattern="m 2.2379925,7.3345032 c 0,-2.891202 2.3464843,-5.2376847 5.2376853,-5.2376847 2.8912022,0 5.2376842,2.3464827 5.2376842,5.2376847 0,2.8912008 -2.346482,5.2376848 -5.2376842,5.2376848 -2.891201,0 -5.2376853,-2.346484 -5.2376853,-5.2376848 z"
       copytype="single_stretched"
       prop_scale="0.37058539"
       scale_y_rel="false"
       spacing="0"
       normal_offset="0"
       tang_offset="0"
       prop_units="false"
       vertical_pattern="false"
       fuse_tolerance="0"
       lpeversion="0"
       hide_knot="false" />
    <inkscape:path-effect
       effect="skeletal"
       id="path-effect900"
       is_visible="true"
       pattern="M 0,5 C 0,2.24 2.24,0 5,0 7.76,0 10,2.24 10,5 10,7.76 7.76,10 5,10 2.24,10 0,7.76 0,5 Z"
       copytype="single_stretched"
       prop_scale="0.31730995"
       scale_y_rel="false"
       spacing="0"
       normal_offset="0"
       tang_offset="0"
       prop_units="false"
       vertical_pattern="false"
       fuse_tolerance="0"
       lpeversion="0"
       hide_knot="false" />
    <inkscape:path-effect
       effect="skeletal"
       id="path-effect896"
       is_visible="true"
       pattern="m 2.2379925,7.3345032 c 0,-2.891202 2.3464843,-5.2376847 5.2376853,-5.2376847 2.8912022,0 5.2376842,2.3464827 5.2376842,5.2376847 0,2.8912008 -2.346482,5.2376848 -5.2376842,5.2376848 -2.891201,0 -5.2376853,-2.346484 -5.2376853,-5.2376848 z"
       copytype="single_stretched"
       prop_scale="0.39547131"
       scale_y_rel="false"
       spacing="0"
       normal_offset="0"
       tang_offset="0"
       prop_units="false"
       vertical_pattern="false"
       fuse_tolerance="0"
       lpeversion="0"
       hide_knot="false" />
    <inkscape:path-effect
       effect="skeletal"
       id="path-effect892"
       is_visible="true"
       pattern="m 2.2379925,7.3345032 c 0,-2.891202 2.3464843,-5.2376847 5.2376853,-5.2376847 2.8912022,0 5.2376842,2.3464827 5.2376842,5.2376847 0,2.8912008 -2.346482,5.2376848 -5.2376842,5.2376848 -2.891201,0 -5.2376853,-2.346484 -5.2376853,-5.2376848 z"
       copytype="single_stretched"
       prop_scale="0.35009513"
       scale_y_rel="false"
       spacing="0"
       normal_offset="0"
       tang_offset="0"
       prop_units="false"
       vertical_pattern="false"
       fuse_tolerance="0"
       lpeversion="0"
       hide_knot="false" />
    <inkscape:path-effect
       effect="skeletal"
       id="path-effect859"
       is_visible="true"
       pattern="m 0.11693042,5.2572469 c 0,-2.76 2.23999998,-4.99999998 4.99999998,-4.99999998 2.76,0 4.9999996,2.23999998 4.9999996,4.99999998 0,2.76 -2.2399996,5.0000001 -4.9999996,5.0000001 -2.76,0 -4.99999998,-2.2400001 -4.99999998,-5.0000001 z"
       copytype="single_stretched"
       prop_scale="0.38294731"
       scale_y_rel="false"
       spacing="0"
       normal_offset="0"
       tang_offset="0"
       prop_units="false"
       vertical_pattern="false"
       fuse_tolerance="0"
       lpeversion="0"
       hide_knot="false" />
    <inkscape:path-effect
       effect="skeletal"
       id="path-effect845"
       is_visible="true"
       pattern="M 0,5 C 0,2.24 2.24,0 5,0 7.76,0 10,2.24 10,5 10,7.76 7.76,10 5,10 2.24,10 0,7.76 0,5 Z"
       copytype="single_stretched"
       prop_scale="0.37031397"
       scale_y_rel="false"
       spacing="0"
       normal_offset="0"
       tang_offset="0"
       prop_units="false"
       vertical_pattern="false"
       fuse_tolerance="0"
       lpeversion="0"
       hide_knot="false" />
    <inkscape:path-effect
       effect="skeletal"
       id="path-effect841"
       is_visible="true"
       pattern="M 0,5 C 0,2.24 2.24,0 5,0 7.76,0 10,2.24 10,5 10,7.76 7.76,10 5,10 2.24,10 0,7.76 0,5 Z"
       copytype="single_stretched"
       prop_scale="0.35798728"
       scale_y_rel="false"
       spacing="0"
       normal_offset="0"
       tang_offset="0"
       prop_units="false"
       vertical_pattern="false"
       fuse_tolerance="0"
       lpeversion="0"
       hide_knot="false" />
    <radialGradient
       inkscape:collect="always"
       xlink:href="#linearGradient26821"
       id="radialGradient26823"
       cx="47.113556"
       cy="74.168579"
       fx="47.113556"
       fy="74.168579"
       r="28.674217"
       gradientTransform="matrix(1.2641882,-0.16594508,0.06416239,0.48879631,-9.7570145,-7.1883812)"
       gradientUnits="userSpaceOnUse" />
  </defs>
  <sodipodi:namedview
     id="base"
     pagecolor="#ffffff"
     bordercolor="#666666"
     borderopacity="1.0"
     inkscape:pageopacity="0.0"
     inkscape:pageshadow="2"
     inkscape:zoom="0.70710678"
     inkscape:cx="-217.08178"
     inkscape:cy="371.23106"
     inkscape:document-units="mm"
     inkscape:current-layer="layer4"
     showgrid="false"
     showborder="true"
     inkscape:snap-global="true"
     inkscape:snap-bbox="true"
     inkscape:bbox-paths="true"
     inkscape:bbox-nodes="true"
     inkscape:snap-bbox-edge-midpoints="true"
     inkscape:snap-bbox-midpoints="true"
     inkscape:snap-nodes="true"
     inkscape:object-paths="true"
     inkscape:snap-intersection-paths="true"
     inkscape:snap-smooth-nodes="true"
     inkscape:snap-midpoints="true"
     inkscape:snap-object-midpoints="true"
     inkscape:snap-center="true"
     inkscape:snap-text-baseline="true"
     inkscape:snap-page="true"
     inkscape:window-width="1920"
     inkscape:window-height="1001"
     inkscape:window-x="-9"
     inkscape:window-y="-9"
     inkscape:window-maximized="1"
     showguides="false"
     inkscape:pagecheckerboard="1"
     units="px"
     fit-margin-top="0"
     fit-margin-left="0"
     fit-margin-right="0"
     fit-margin-bottom="0" />
  <metadata
     id="metadata5">
    <rdf:RDF>
      <cc:Work
         rdf:about="">
        <dc:format>image/svg+xml</dc:format>
        <dc:type
           rdf:resource="http://purl.org/dc/dcmitype/StillImage" />
      </cc:Work>
    </rdf:RDF>
  </metadata>
  <g
     inkscape:groupmode="layer"
     id="layer6"
     inkscape:label="colors - body"
     style="display:inline"
     transform="translate(47.079033,-57.555501)"
     sodipodi:insensitive="true">
    <path
       style="display:inline;opacity:1;fill:#f2f2f2;fill-opacity:1;stroke:none;stroke-width:0.696612;stroke-linecap:round;stroke-linejoin:round;stroke-miterlimit:4;stroke-dasharray:none;stroke-opacity:1;paint-order:normal"
       d="m -13.685568,187.17417 -1.629102,1.48212 -2.780499,2.26604 -7.833304,4.43031 -5.23141,4.33064 -4.832991,4.57315 -2.37319,3.222 -1.472417,3.96686 -1.90548,4.86765 -1.755412,6.97096 -0.88192,6.63891 -0.269474,6.51641 0.04899,8.15777 -0.318474,3.2337 -0.07603,0.53329 c 2.958256,-0.26199 5.854952,0.61474 8.819401,0.6035 3.437426,-0.0131 6.900071,-0.41093 10.360379,-0.57881 1.214728,-0.059 2.342435,0.022 3.581153,0.067 5.296531,0.16944 10.687095,-0.58473 16.0134255,-0.39914 7.44486,0.25942 14.8303083,1.42976 22.2411645,1.3614 6.761345,-0.0623 13.436475,-0.79552 20.143988,-0.92371 4.438524,-0.0849 8.878212,-0.24143 13.261304,0.24992 2.356216,0.25016 5.12511,-0.25907 7.466028,-0.18229 3.0468,0.0999 5.691468,0.46568 8.648038,0.55122 2.23935,0.0647 4.50987,-0.12877 6.7258,-0.27695 l -0.38977,-5.74243 -0.46715,-3.22469 -0.15924,-2.11905 -0.28172,-4.06663 -0.55119,-3.09898 -0.13475,-2.19256 -0.99215,-4.36059 -0.85744,-2.91524 -0.9799,-2.805 -1.83734,-4.87506 -2.79274,-5.85497 -3.380697,-5.78148 -3.258206,-4.60558 -3.748161,-4.33611 -2.474276,-2.40078 -7.349334,-3.67467 -7.006367,-3.62567 -4.899557,-2.96424 -3.233707,-2.84174 -0.587949,1.29838 -2.621261,4.4831 -2.817246,3.3317 -2.572266,1.98432 -3.870651,2.32729 -2.964233,0.97992 -1.690346,0.48995 -3.8461522,0.83292 -4.5075953,-0.0735 -4.679076,-0.80842 -4.017637,-1.27389 -3.4296895,-1.61684 z"
       id="path969"
       inkscape:connector-curvature="0"
       sodipodi:nodetypes="cccccccccccccccsscssscssccccccccccccccccccccccccccccccccc" />
    <path
       style="display:inline;opacity:1;fill:#e6dfca;fill-opacity:1;stroke:none;stroke-width:0.696613;stroke-linecap:round;stroke-linejoin:round;stroke-miterlimit:4;stroke-dasharray:none;stroke-opacity:1;paint-order:normal"
       d="m -2.3676415,159.80998 -0.496939,0.0931 -0.128837,3.12564 -0.277162,5.19676 -0.900772,4.43457 -1.83619,4.26135 -3.914897,5.09283 -2.0787055,3.32593 -1.635357,1.89519 2.425157,1.50652 6.3205655,3.00114 4.36041006,0.94299 3.67454624,0.31885 3.675087,0.0979 1.445351,-0.41683 5.5361792,-1.31056 4.164991,-2.25354 5.197847,-4.40535 2.806254,-4.36529 1.628319,-3.08341 -4.781024,-5.23141 -2.910189,-5.19677 -1.801544,-4.95424 -0.207871,-0.80226 -0.103392,5.5e-4 -4.654893,0.78439 -3.8212472,0.24469 -2.058135,-0.0731 -5.9281013,-1.02907 z"
       id="path958"
       inkscape:connector-curvature="0" />
  </g>
  <g
     inkscape:groupmode="layer"
     id="layer5"
     inkscape:label="colors - face"
     style="display:inline"
     transform="translate(47.079033,-57.555501)"
     sodipodi:insensitive="true">
    <path
       style="display:inline;opacity:1;fill:#e6dfca;fill-opacity:1;stroke:none;stroke-width:0.696613;stroke-linecap:round;stroke-linejoin:round;stroke-miterlimit:4;stroke-dasharray:none;stroke-opacity:1;paint-order:normal"
       d="m 44.227854,57.811554 -5.716442,1.039353 -3.187348,2.321221 -2.771608,3.845606 -3.603091,5.958958 -3.083413,4.434572 -9.180952,1.662966 0.381095,-2.944834 -0.485031,-1.870835 -4.884959,3.256639 -0.27716,-2.286577 0.588965,-2.009416 2.251932,-3.39522 -2.009415,0.381096 -2.113352,1.42045 -1.7322542,1.870835 -0.935418,1.974771 -1.974771,-1.662964 -1.870835,-1.35116 -2.77160927,-0.762192 -0.72754597,0.0693 0.65825697,0.935417 1.97477127,2.771608 0.796836,1.801545 -0.311805,0.519677 -1.5936753,0.450386 -1.83618994,-0.242515 -3.04876906,-1.212579 -0.103937,0.623612 0.173226,1.83619 0.727547,1.62832 -5.716442,2.633027 -0.900772,-0.796837 -4.2267005,-2.044061 -3.499156,-0.588966 -4.088122,0.450385 -3.014125,1.316514 -3.083412,3.083415 -5.543216,6.825085 -3.083414,5.958955 -1.593674,3.949538 -1.524385,2.736961 -2.910188,7.17153 -2.459802,7.69122 -1.836191,9.25024 -0.588967,7.79515 -0.207871,2.28657 1.073998,8.17626 1.801547,6.06288 1.593674,2.66767 1.524384,1.03936 1.039353,0.13858 1.004708,-0.34646 1.732255,-1.28187 1.212579,-2.11334 1.212578,-2.35587 1.732255,-8.66127 1.62832,-6.85973 1.108643,-6.47863 0.970063,-5.47394 1.524385,-6.72115 0.970062,-4.88495 0.0693,-2.04406 2.04406,-4.64246 2.944833,-6.755782 2.736963,-5.16211 0.727547,0.415736 4.088121,3.499161 -3.67238,6.998295 -2.286576,6.96368 -1.177934,5.95895 -0.485031,6.6865 0.519676,6.13218 0.277162,0.90077 -1.870836,4.81567 0.03464,3.98419 1.004709,3.42986 1.108643,3.98419 1.004708,3.01413 2.355867,3.42986 3.152703,2.63303 4.7117335,1.7669 1.732256,1.35116 4.711733,2.80625 -0.0097,0.23494 0.49694,-0.0931 3.699447,1.20068 5.9281033,1.02905 2.058134,0.0731 3.8212472,-0.24469 4.654893,-0.78438 0.103393,-5.5e-4 -0.03464,-0.13318 2.044061,-0.62361 2.425158,-1.52438 3.949541,-3.22199 1.90548,-1.17794 3.637736,-1.14328 3.291287,-1.31651 2.009415,-1.59369 2.979477,-3.18735 2.494448,-4.71173 1.143289,-3.39522 0.03464,-5.36999 -0.866128,-3.98418 0.13858,-5.78573 v -5.6818 l -0.623612,-5.64715 -1.628319,-7.8298 -2.078706,-6.963662 1.073997,-0.27715 2.009416,-1.69761 1.177935,-1.455102 0.970062,-2.251932 0.381096,-2.806246 -0.796837,-2.529095 -2.217286,-2.910188 -1.69761,-1.351159 2.529092,-2.771608 2.840898,-2.633027 -0.658257,-4.677089 -1.940125,1.42045 -4.434573,4.573152 -2.736964,3.39522 -2.009415,2.736964 -0.554323,0.866127 -1.905479,-2.044061 -1.974772,-1.7669 3.568446,-4.919605 3.291285,-4.573153 4.088121,-3.67238 3.291285,-1.905482 0.866128,1.524386 0.588967,3.949541 0.155902,1.177933 0.346451,2.64169 0.216532,1.463755 0.703728,3.284788 1.641313,4.31169 0.857466,3.135926 0.637145,2.84144 2.547497,7.202385 2.204837,6.810462 1.420989,5.68342 0.587886,1.95962 2.302815,5.34076 2.54804,4.89957 1.273751,2.00887 1.46971,1.61696 1.8129,0.83256 1.46972,0.24523 0.93108,-0.44119 1.17578,-0.93054 1.07778,-2.05814 1.22503,-4.70362 0.14724,-5.38947 -0.44118,-4.31169 -1.27375,-7.3491 -1.32301,-7.545585 -1.12705,-5.095533 -2.10685,-7.545054 -2.15557,-6.369286 -1.59259,-3.856432 -3.67239,-5.785757 -3.880251,-4.746378 -2.425156,-1.905481 -3.04877,-1.039352 z"
       id="path975"
       inkscape:connector-curvature="0" />
    <path
       inkscape:connector-curvature="0"
       id="path960"
       d="m -11.481467,83.72613 3.6030905,2.875543 -2.7369625,3.499151 -1.143288,1.593681 -3.083414,-1.974775 -2.355867,-1.039355 1.62832,-2.113347 2.944834,-2.425157 z"
       style="display:inline;opacity:1;fill:#f397a3;fill-opacity:1;stroke:none;stroke-width:0.696612;stroke-linecap:round;stroke-linejoin:round;stroke-miterlimit:4;stroke-dasharray:none;stroke-opacity:1;paint-order:normal" />
    <path
       inkscape:connector-curvature="0"
       id="path962"
       d="m 28.916082,81.809194 2.768249,-4.507591 2.939736,-4.11563 2.327289,-2.425279 3.674667,-2.817245 2.425283,-1.469868 0.930913,2.131307 0.391967,3.797158 -2.988731,2.327289 -3.625673,4.164623 -2.547768,2.841744 -2.596766,3.919644 -1.567857,-1.984318 z"
       style="display:inline;opacity:1;fill:#f397a3;fill-opacity:1;stroke:none;stroke-width:0.696612;stroke-linecap:round;stroke-linejoin:round;stroke-miterlimit:4;stroke-dasharray:none;stroke-opacity:1;paint-order:normal" />
    <path
       style="display:inline;opacity:1;fill:#f397a3;fill-opacity:1;stroke:none;stroke-width:0.696612;stroke-linecap:round;stroke-linejoin:round;stroke-miterlimit:4;stroke-dasharray:none;stroke-opacity:1;paint-order:normal"
       d="m 4.7497618,123.15226 2.425158,-0.55433 3.1353812,-0.0346 1.714933,0.39842 1.316514,1.02203 0.848804,1.00471 -0.20787,1.43777 -1.507062,0.57164 -3.4125432,-1.02202 -3.187349,0.64093 -1.610995,-0.90078 -0.225194,-1.16061 z"
       id="path983"
       inkscape:connector-curvature="0" />
  </g>
  <g
     inkscape:groupmode="layer"
     id="layer12"
     inkscape:label="colors - hair"
     style="display:none"
     transform="translate(1.2231008e-7,-4.6136743)"
     sodipodi:insensitive="true">
    <path
       style="display:inline;fill:url(#radialGradient26823);fill-opacity:1;stroke:none;stroke-width:0.27716px;stroke-linecap:butt;stroke-linejoin:miter;stroke-opacity:1"
       d="m 29.352311,49.368816 1.247224,-2.875541 3.083414,-5.57786 2.633028,-3.707025 2.563737,-3.014124 3.048769,-2.875544 -2.251932,-1.039354 -1.870835,-1.455093 2.529092,-0.866128 4.399927,-2.009415 -0.935417,-1.662965 -0.0693,-2.355867 1.073998,0.346452 2.009416,0.831482 2.598382,0.0693 1.177934,-0.554322 -0.27716,-1.455094 -1.48974,-2.529091 -1.62832,-1.62832 0.762192,-0.277162 2.182642,0.485032 4.434572,3.256639 2.251932,-3.083413 1.177933,-1.316514 1.69761,-0.900773 1.662961,-0.27716 -0.727543,1.004707 -1.559029,2.633028 -0.450387,2.147996 0.03464,1.732254 1.766899,-0.900772 3.25664,-2.182641 0.31181,1.385805 -0.10391,3.325929 2.42514,-0.415741 6.65186,-1.247224 -0.97007,2.459803 -1.73224,2.182639 2.80624,0.554323 2.77162,1.177933 2.7716,2.390511 2.42515,3.568447 3.67238,7.379406 2.35587,6.617212 C 71.42937,59.911774 51.522336,62.707692 26.996451,56.401781 Z"
       id="path26401"
       sodipodi:nodetypes="cccccccccccccccccccccccccccccccccccccccccccccc" />
  </g>
  <g
     inkscape:groupmode="layer"
     id="layer3"
     inkscape:label="lines - body"
     style="display:inline"
     transform="translate(47.079033,-57.555501)"
     sodipodi:insensitive="true">
    <path
       style="display:inline;opacity:1;fill:none;fill-opacity:1;stroke:#1a1a1a;stroke-width:0.696612;stroke-linecap:round;stroke-linejoin:round;stroke-miterlimit:4;stroke-dasharray:none;stroke-opacity:1;paint-order:normal"
       d="m -2.8695745,159.52977 c 0.117755,15.99398 -3.519247,17.2014 -7.3696925,23.21703 -1.305099,2.03899 -2.629091,3.70159 -3.828352,4.80645 -2.537286,2.33754 -5.611539,4.29205 -8.885151,6.14942 -1.947368,1.1049 -3.667485,2.22724 -5.00672,3.40196 -0.901323,0.79059 -1.861751,1.59134 -2.891502,2.40954 -0.986727,0.784 -1.925772,1.58787 -2.801843,2.41887 -2.2243,2.10987 -4.042649,4.39463 -5.204753,6.97319 -2.617523,5.80795 -4.204766,11.6593 -5.122769,17.47721 -1.072754,6.79863 -0.34225,13.78878 -0.852752,20.18968 -0.04137,0.51868 -0.219498,2.05628 -0.278782,2.5668"
       id="path868"
       inkscape:connector-curvature="0"
       sodipodi:nodetypes="csssssssssc" />
    <path
       style="display:inline;opacity:1;fill:none;fill-opacity:1;stroke:#1a1a1a;stroke-width:0.696612;stroke-linecap:round;stroke-linejoin:round;stroke-miterlimit:4;stroke-dasharray:none;stroke-opacity:1;paint-order:normal"
       d="m 17.821676,161.0155 c 3.10774,9.03964 5.464239,12.34421 10.073026,16.696 2.135187,2.01613 4.648631,3.81535 7.692833,5.45822 3.898282,2.10377 7.917924,3.9753 11.468162,5.77112 1.88604,0.954 3.393354,1.90045 4.320158,2.86914 2.477782,2.5898 4.706899,5.11988 6.490683,7.72083 4.355562,6.3509 7.063442,11.65512 8.884362,16.88909 3.08487,8.86698 3.48708,8.21182 5.30257,29.78349 0.0645,0.76699 0.17988,2.44402 0.24819,3.26865"
       id="path870"
       inkscape:connector-curvature="0"
       sodipodi:nodetypes="csssssssc" />
    <path
       style="display:inline;opacity:1;fill:none;fill-opacity:1;stroke:#1a1a1a;stroke-width:0.696612;stroke-linecap:round;stroke-linejoin:round;stroke-miterlimit:4;stroke-dasharray:none;stroke-opacity:1;paint-order:normal"
       d="m -13.687146,187.18823 c 3.8545775,2.62178 8.5141775,4.7241 13.53788656,5.51057 3.61923724,0.56661 7.28360524,0.50422 10.51732844,-0.36834 2.221969,-0.59955 4.998852,-1.71219 7.670031,-3.29059 4.501849,-2.66015 7.545548,-7.39247 9.442459,-11.72253"
       id="path873"
       inkscape:connector-curvature="0"
       sodipodi:nodetypes="csssc" />
    <path
       style="display:inline;opacity:1;fill:none;fill-opacity:1;stroke:#1a1a1a;stroke-width:0.696612;stroke-linecap:round;stroke-linejoin:round;stroke-miterlimit:4;stroke-dasharray:none;stroke-opacity:1;paint-order:normal"
       d="m -24.464592,222.03451 c -1.88538,6.02066 3.204335,17.40463 2.31364,25.7236 -0.01759,0.16423 -0.215108,1.27043 -0.335445,1.66493"
       id="path875"
       inkscape:connector-curvature="0"
       sodipodi:nodetypes="csc" />
    <path
       style="display:inline;opacity:1;fill:none;fill-opacity:1;stroke:#1a1a1a;stroke-width:0.696612;stroke-linecap:round;stroke-linejoin:round;stroke-miterlimit:4;stroke-dasharray:none;stroke-opacity:1;paint-order:normal"
       d="m 47.120722,215.18697 c -1.552675,5.80705 0.980104,10.45378 1.465737,18.31577 0.30933,5.00777 -1.272582,7.39859 0.631082,14.32678 0.06375,0.23203 0.302899,1.09996 0.487975,1.59352"
       id="path877"
       inkscape:connector-curvature="0"
       sodipodi:nodetypes="cssc" />
  </g>
  <g
     inkscape:groupmode="layer"
     id="layer10"
     inkscape:label="owo"
     style="display:none"
     transform="translate(1.2231008e-7,-4.6136743)"
     sodipodi:insensitive="true">
    <path
       style="display:inline;opacity:1;fill:none;fill-opacity:1;stroke:#1a1a1a;stroke-width:0.696612;stroke-linecap:round;stroke-linejoin:round;stroke-miterlimit:4;stroke-dasharray:none;stroke-opacity:1;paint-order:normal"
       d="m 41.244718,164.61833 c 0.173479,-0.17766 0.356592,-0.32691 0.546927,-0.44932 2.44545,-1.57273 7.607439,0.9378 5.793127,5.23033 -0.498585,1.13954 -2.456373,1.06008 -3.534043,1.05569 -2.022515,-0.008 -3.521603,-1.19945 -3.681488,-3.24815 -0.06747,-0.86454 0.101967,-1.67885 0.568744,-2.25058 0.0931,-0.11404 0.195304,-0.22684 0.306733,-0.33797 z"
       id="path891"
       inkscape:connector-curvature="0"
       sodipodi:nodetypes="cscsssc" />
    <path
       style="display:inline;opacity:1;fill:none;fill-opacity:1;stroke:#1a1a1a;stroke-width:0.696612;stroke-linecap:round;stroke-linejoin:round;stroke-miterlimit:4;stroke-dasharray:none;stroke-opacity:1;paint-order:normal"
       d="m 49.326535,164.65539 c 0.498308,1.52211 2.093112,4.16884 3.01911,4.00116 1.344676,-0.24352 -0.573415,-2.64105 0.259811,-3.11013 0.729158,-0.41048 2.455737,2.09194 3.245467,1.55223 0.762413,-0.52104 0.199441,-2.42703 -1.052193,-4.32477"
       id="path893"
       inkscape:connector-curvature="0"
       sodipodi:nodetypes="csssc" />
    <path
       style="display:inline;opacity:1;fill:none;fill-opacity:1;stroke:#1a1a1a;stroke-width:0.696612;stroke-linecap:round;stroke-linejoin:round;stroke-miterlimit:4;stroke-dasharray:none;stroke-opacity:1;paint-order:normal"
       d="m 60.6633,158.694 c -2.963239,0.19548 -3.308695,2.55503 -2.910328,4.13125 0.266232,1.05341 1.017869,1.96484 2.00267,2.27132 0.996538,0.31012 2.374258,0.0866 3.452578,-0.45994 2.15379,-1.09145 3.28467,-5.52863 -2.54492,-5.45758"
       id="path895"
       inkscape:connector-curvature="0"
       sodipodi:nodetypes="csssc" />
    <path
       style="display:inline;opacity:1;fill:none;fill-opacity:1;stroke:#1a1a1a;stroke-width:0.696612;stroke-linecap:round;stroke-linejoin:round;stroke-miterlimit:4;stroke-dasharray:none;stroke-opacity:1;paint-order:normal"
       d="m 63.76404,155.02164 c 0.18552,-4.03198 4.62064,-3.49457 5.68179,-2.91842 0.31926,0.17334 0.75949,0.5841 0.82909,1.20724 0.23045,2.06308 -3.22725,2.31102 -1.26215,4.98514"
       id="path897"
       inkscape:connector-curvature="0"
       sodipodi:nodetypes="cssc" />
    <path
       style="display:inline;opacity:1;fill:none;fill-opacity:1;stroke:#1a1a1a;stroke-width:0.696612;stroke-linecap:round;stroke-linejoin:round;stroke-miterlimit:4;stroke-dasharray:none;stroke-opacity:1;paint-order:normal"
       d="m 33.834426,180.60665 c 1.286046,3.90019 3.575568,5.87635 4.444424,5.47357 0.807806,-0.37448 0.524851,-1.71417 0.422343,-2.80495 -0.08468,-0.90109 -0.08751,-1.44022 -0.03231,-1.75584 0.04999,-0.28576 0.292692,-0.24292 0.628073,-0.0567 0.335832,0.18645 0.764592,0.58001 1.185836,0.95033 0.579402,0.50936 1.365886,1.1213 1.921733,1.04605 0.707959,-0.0959 0.922829,-0.71295 0.513381,-2.02098 -0.311575,-0.99537 -2.413783,-2.89318 -2.077119,-4.26115"
       id="path913"
       inkscape:connector-curvature="0"
       sodipodi:nodetypes="csssssssc" />
    <path
       style="display:inline;opacity:1;fill:none;fill-opacity:1;stroke:#1a1a1a;stroke-width:0.696612;stroke-linecap:round;stroke-linejoin:round;stroke-miterlimit:4;stroke-dasharray:none;stroke-opacity:1;paint-order:normal"
       d="m 41.469911,174.64808 c 1.266194,2.34325 3.446612,4.29706 4.919606,6.63454 -0.435295,-1.49776 -0.651227,-2.57762 -0.65064,-3.29127 8.28e-4,-1.00803 0.560223,-1.39449 1.479576,-1.14064 0.91218,0.25188 1.79763,1.42859 3.605635,2.66501"
       id="path915"
       inkscape:connector-curvature="0"
       sodipodi:nodetypes="ccssc" />
    <path
       style="display:inline;opacity:1;fill:none;fill-opacity:1;stroke:#1a1a1a;stroke-width:0.696612;stroke-linecap:round;stroke-linejoin:round;stroke-miterlimit:4;stroke-dasharray:none;stroke-opacity:1;paint-order:normal"
       d="m 55.951563,176.62285 c -1.445178,-0.71901 -1.697018,-1.32015 -2.262816,-1.90801 -0.558235,-0.57999 -1.302055,-0.54808 -1.72144,-0.42413 -0.855424,0.25285 -1.192962,1.3086 -1.15242,2.17343 0.02648,0.56489 0.349196,1.24371 0.760826,1.7118 0.49225,0.55978 1.476274,0.49947 2.02549,-0.31427 0.418667,-0.62031 4.1e-4,-1.7749 0.08754,-3.14683"
       id="path917"
       inkscape:connector-curvature="0"
       sodipodi:nodetypes="csssssc" />
    <path
       style="display:inline;opacity:1;fill:none;fill-opacity:1;stroke:#1a1a1a;stroke-width:0.696612;stroke-linecap:round;stroke-linejoin:round;stroke-miterlimit:4;stroke-dasharray:none;stroke-opacity:1;paint-order:normal"
       d="m 55.206694,169.71115 c 1.356139,2.16034 2.934433,4.09854 4.659766,5.88968"
       id="path919"
       inkscape:connector-curvature="0"
       sodipodi:nodetypes="cc" />
    <path
       style="display:inline;opacity:1;fill:none;fill-opacity:1;stroke:#1a1a1a;stroke-width:0.696612;stroke-linecap:round;stroke-linejoin:round;stroke-miterlimit:4;stroke-dasharray:none;stroke-opacity:1;paint-order:normal"
       d="m 56.904304,174.47486 c 0.775091,-1.32978 1.619675,-1.83484 2.442479,-2.59838"
       id="path921"
       inkscape:connector-curvature="0"
       sodipodi:nodetypes="cc" />
    <path
       style="display:inline;opacity:1;fill:none;fill-opacity:1;stroke:#1a1a1a;stroke-width:0.696612;stroke-linecap:round;stroke-linejoin:round;stroke-miterlimit:4;stroke-dasharray:none;stroke-opacity:1;paint-order:normal"
       d="m 61.00247,167.81881 0.36747,1.07791"
       id="path925"
       inkscape:connector-curvature="0" />
    <path
       style="display:inline;opacity:1;fill:none;fill-opacity:1;stroke:#1a1a1a;stroke-width:0.696612;stroke-linecap:round;stroke-linejoin:round;stroke-miterlimit:4;stroke-dasharray:none;stroke-opacity:1;paint-order:normal"
       d="m 65.63254,168.28426 c -2.9431,2.18038 -1.33536,2.12002 0.14426,2.19902 1.59821,0.0854 2.96109,1.83492 -0.26675,3.43547"
       id="path927"
       inkscape:connector-curvature="0"
       sodipodi:nodetypes="csc" />
    <path
       style="display:inline;opacity:1;fill:none;fill-opacity:1;stroke:#1a1a1a;stroke-width:0.696612;stroke-linecap:round;stroke-linejoin:round;stroke-miterlimit:4;stroke-dasharray:none;stroke-opacity:1;paint-order:normal"
       d="m 45.397381,185.45721 c 1.662523,2.03872 3.08184,4.21641 4.287112,6.51641"
       id="path929"
       inkscape:connector-curvature="0"
       sodipodi:nodetypes="cc" />
    <path
       style="display:inline;opacity:1;fill:none;fill-opacity:1;stroke:#1a1a1a;stroke-width:0.696612;stroke-linecap:round;stroke-linejoin:round;stroke-miterlimit:4;stroke-dasharray:none;stroke-opacity:1;paint-order:normal"
       d="m 47.29596,191.12844 c 0.82884,-1.04882 1.657682,-1.46225 2.486525,-2.09455"
       id="path931"
       inkscape:connector-curvature="0"
       sodipodi:nodetypes="cc" />
    <path
       style="display:inline;opacity:1;fill:none;fill-opacity:1;stroke:#1a1a1a;stroke-width:0.696612;stroke-linecap:round;stroke-linejoin:round;stroke-miterlimit:4;stroke-dasharray:none;stroke-opacity:1;paint-order:normal"
       d="m 48.361613,182.63997 c 2.049648,2.66138 3.60934,5.72981 5.63449,8.20676 -2.065678,-6.52505 2.414593,-3.54859 3.846153,-1.88633"
       id="path933"
       inkscape:connector-curvature="0"
       sodipodi:nodetypes="ccc" />
    <path
       style="display:inline;opacity:1;fill:none;fill-opacity:1;stroke:#1a1a1a;stroke-width:0.696612;stroke-linecap:round;stroke-linejoin:round;stroke-miterlimit:4;stroke-dasharray:none;stroke-opacity:1;paint-order:normal"
       d="m 57.229812,184.79577 c 0.764697,0.99817 1.713534,1.8736 2.670259,2.74375"
       id="path935"
       inkscape:connector-curvature="0"
       sodipodi:nodetypes="cc" />
    <path
       style="display:inline;opacity:1;fill:none;fill-opacity:1;stroke:#1a1a1a;stroke-width:0.696612;stroke-linecap:round;stroke-linejoin:round;stroke-miterlimit:4;stroke-dasharray:none;stroke-opacity:1;paint-order:normal"
       d="m 61.73741,180.80263 c -1.929203,2.26357 -0.83754,2.41853 1.34748,2.43961 2.04135,0.0197 3.57322,0.84989 0.34287,2.43545"
       id="path937"
       inkscape:connector-curvature="0"
       sodipodi:nodetypes="csc" />
    <path
       style="display:inline;opacity:1;fill:none;fill-opacity:1;stroke:#1a1a1a;stroke-width:0.696612;stroke-linecap:round;stroke-linejoin:round;stroke-miterlimit:4;stroke-dasharray:none;stroke-opacity:1;paint-order:normal"
       d="m 62.57033,177.8384 c 0.15695,-2.3935 2.2104,-2.69524 3.37566,-2.1969 0.75682,0.32367 1.12569,0.7416 1.29828,1.23589 0.40888,1.17119 -2.14595,2.5997 0.47059,4.56218"
       id="path939"
       inkscape:connector-curvature="0"
       sodipodi:nodetypes="cssc" />
    <ellipse
       ry="0.4936927"
       rx="0.50235391"
       cy="161.07585"
       cx="71.022209"
       id="path899"
       style="display:inline;opacity:1;fill:#1a1a1a;fill-opacity:1;stroke:none;stroke-width:1.38446;stroke-linecap:round;stroke-linejoin:round;stroke-miterlimit:4;stroke-dasharray:none;stroke-opacity:1;paint-order:normal" />
    <ellipse
       ry="0.54566032"
       rx="0.57164413"
       cy="183.19676"
       cx="69.653702"
       id="path941"
       style="display:inline;opacity:1;fill:#1a1a1a;fill-opacity:1;stroke:none;stroke-width:0.696612;stroke-linecap:round;stroke-linejoin:round;stroke-miterlimit:4;stroke-dasharray:none;stroke-opacity:1;paint-order:normal" />
  </g>
  <g
     inkscape:groupmode="layer"
     id="layer4"
     inkscape:label="shadows - face"
     style="display:inline;opacity:0.28"
     transform="translate(47.079033,-57.555501)"
     sodipodi:insensitive="true">
    <path
       inkscape:original-d="m 21.493252,114.83221 11.905925,0.48995"
       inkscape:path-effect="#path-effect896"
       inkscape:connector-curvature="0"
       id="path894"
       d="m 21.493252,114.83221 c 0.04701,-1.14242 2.752097,-1.95985 6.038133,-1.82463 3.286036,0.13523 5.914808,1.17216 5.867795,2.31458 -0.04701,1.14242 -2.752095,1.95985 -6.038131,1.82463 -3.286035,-0.13523 -5.91481,-1.17216 -5.867797,-2.31458 z"
       style="display:inline;opacity:1;fill:#4f2600;fill-opacity:1;stroke:none;stroke-width:0.27716px;stroke-linecap:butt;stroke-linejoin:miter;stroke-opacity:1" />
    <path
       inkscape:original-d="m -12.65666,115.71413 10.5340475,0.97992"
       inkscape:path-effect="#path-effect892"
       inkscape:connector-curvature="0"
       id="path890"
       d="m -12.65666,115.71413 c 0.09375,-1.00784 2.529474,-1.6063 5.4368727,-1.33584 2.9073999,0.27045 5.1909377,1.30792 5.0971839,2.31576 -0.093754,1.00785 -2.5294717,1.6063 -5.4368716,1.33585 -2.907399,-0.27046 -5.190939,-1.30793 -5.097185,-2.31577 z"
       style="display:inline;opacity:1;fill:#4f2600;fill-opacity:1;stroke:none;stroke-width:0.27716px;stroke-linecap:butt;stroke-linejoin:miter;stroke-opacity:1" />
    <path
       sodipodi:nodetypes="ccsscc"
       inkscape:connector-curvature="0"
       id="path912"
       d="m 5.1265848,123.08014 c 2.966512,-0.71557 5.3433062,-0.86547 6.7118502,-0.0483 0.76401,-0.7473 1.709621,-0.32689 2.016231,-0.81148 0.60387,-0.95438 -0.02785,-2.46274 -0.8195,-2.89133 -2.555704,-1.38366 -10.1137362,-0.091 -7.9085812,3.75113 z"
       style="display:inline;opacity:1;fill:#4f2600;fill-opacity:1;stroke:none;stroke-width:0.27716px;stroke-linecap:butt;stroke-linejoin:miter;stroke-opacity:1" />
    <path
       inkscape:original-d="M 5.1135368,153.46672 11.661461,153.2935"
       inkscape:path-effect="#path-effect916"
       inkscape:connector-curvature="0"
       id="path914"
       d="m 5.1135368,153.46672 c -0.028334,-1.07106 1.4154066,-1.97913 3.2226336,-2.02694 1.8072276,-0.0478 3.2969586,0.78266 3.3252926,1.85372 0.02833,1.07106 -1.415405,1.97913 -3.2226328,2.02694 -1.8072271,0.0478 -3.2969593,-0.78266 -3.3252934,-1.85372 z"
       style="display:inline;opacity:1;fill:#4f2600;fill-opacity:1;stroke:none;stroke-width:0.27716px;stroke-linecap:butt;stroke-linejoin:miter;stroke-opacity:1"
       sodipodi:nodetypes="cc" />
    <path
       sodipodi:nodetypes="ccccc"
       inkscape:connector-curvature="0"
       id="path922"
       d="m -11.290919,83.674165 c -2.438697,1.137809 -4.414716,2.777673 -5.768408,5.092831 1.793018,0.64919 3.473,1.637498 5.058184,2.910182 l 4.2267025,-5.006213 c -1.257183,-0.800545 -2.3961185,-1.877002 -3.5164785,-2.9968 z"
       style="display:inline;opacity:1;fill:#3c0000;fill-opacity:1;stroke:none;stroke-width:0.27716px;stroke-linecap:butt;stroke-linejoin:miter;stroke-opacity:1" />
    <path
       sodipodi:nodetypes="cccccc"
       inkscape:connector-curvature="0"
       id="path918"
       d="m 29.694236,80.59075 c 1.475408,0.613568 2.791553,1.68502 3.897574,3.360575 l -0.935418,1.455094 -1.888157,-2.165317 -1.836192,-1.541708 z"
       style="display:inline;opacity:1;fill:#3c0000;fill-opacity:1;stroke:none;stroke-width:0.27716px;stroke-linecap:butt;stroke-linejoin:miter;stroke-opacity:1" />
    <path
       sodipodi:nodetypes="cccccccc"
       inkscape:connector-curvature="0"
       id="path920"
       d="m 39.741315,68.516933 c 1.895897,1.748529 2.221611,3.64978 2.477125,5.612507 l 2.130674,-1.836191 v -1.90548 l -0.502355,-2.286577 -0.762193,-1.55903 -1.645641,0.779515 z"
       style="display:inline;opacity:1;fill:#3c0000;fill-opacity:1;stroke:none;stroke-width:0.27716px;stroke-linecap:butt;stroke-linejoin:miter;stroke-opacity:1" />
  </g>
  <g
     inkscape:groupmode="layer"
     id="layer2"
     inkscape:label="lines - face"
     style="display:inline;opacity:1"
     transform="translate(47.079033,-57.555501)"
     sodipodi:insensitive="true">
    <g
       id="g1781"
       style="display:inline;fill:#f397a3;fill-opacity:1"
       transform="translate(42.09427,7.7118699)" />
    <g
       id="g1773"
       style="display:inline;fill:none;stroke:#1a1a1a;stroke-opacity:1"
       transform="translate(42.09427,7.7118699)">
      <g
         id="g4652"
         style="fill:none;stroke:#1a1a1a" />
    </g>
    <g
       id="g1777"
       style="display:inline;fill:#1a1a1a;fill-opacity:1"
       transform="translate(42.09427,7.7118699)" />
    <g
       id="g1647"
       style="display:inline;opacity:0.28;fill:#3c0000;fill-opacity:1"
       transform="translate(42.09427,7.7118699)" />
    <g
       id="g1638"
       style="fill:#1a1a1a;fill-opacity:1"
       transform="matrix(1.0475369,0,0,1.0475369,2.2379915,2.0968195)">
      <g
         id="g4628"
         style="fill:#1a1a1a">
        <path
           style="fill:#1a1a1a;fill-opacity:1;stroke:none;stroke-width:0.264583px;stroke-linecap:butt;stroke-linejoin:miter;stroke-opacity:1"
           d="m -7.9847471,135.13169 c 3.3878579,0.53459 7.09513239,0.55053 10.631193,0.36557 1.5950721,-0.0834 3.0497499,-0.31237 4.4708038,-0.59202 1.4578144,-0.28689 2.8947253,-0.30565 4.4107913,-0.29166 1.005421,0.009 2.003425,-0.0455 3.068467,-0.1488 1.915458,-0.18587 3.811519,-0.95416 6.830017,-0.93948 1.574708,0.0331 1.942638,0.54067 1.909442,0.98106 -0.03136,0.41597 -1.170867,0.49839 -1.649583,0.55446 -1.750103,0.21182 -2.888228,-0.4182 -4.035606,-0.27494 -1.077306,0.13451 -2.043018,0.37801 -3.074044,0.4542 -1.031291,0.0762 -2.039249,0.14022 -3.072056,0.14099 -1.413368,0.001 -2.80732,0.0627 -4.2169815,0.29411 -1.5012843,0.2464 -3.0127266,0.45545 -4.5691993,0.53228 -2.04966344,0.10117 -4.1585418,0.10622 -6.2077286,0.10322 -1.6828336,-0.002 -1.7159904,0.42105 -4.8971154,0.23851 -0.8019039,-0.0855 -1.117833,-0.58489 -1.0663185,-0.82977 0.048434,-0.23023 0.5108256,-0.75164 1.4679182,-0.58764 z"
           id="path837"
           inkscape:connector-curvature="0"
           sodipodi:nodetypes="csssscscsssssscscc" />
        <path
           style="fill:#1a1a1a;fill-opacity:1;stroke:none;stroke-width:0.264583px;stroke-linecap:butt;stroke-linejoin:miter;stroke-opacity:1"
           d="m -7.5770911,92.745945 c -0.8460918,-0.02763 -0.9214875,0.76429 -0.070158,1.075759 2.880345,1.093986 4.0037258,3.74712 6.85212247,5.051396 C 0.73367949,99.385422 1.5982097,97.986546 0.88867136,97.142529 -1.2501394,94.829002 -3.6513074,92.84116 -7.5770911,92.745945 Z"
           id="path853"
           inkscape:connector-curvature="0"
           sodipodi:nodetypes="ccccc" />
        <path
           style="fill:#1a1a1a;fill-opacity:1;stroke:none;stroke-width:0.264583px;stroke-linecap:butt;stroke-linejoin:miter;stroke-opacity:1"
           d="m 22.076172,90.310807 c 0.844589,0.05965 0.795756,0.662386 0.363802,0.777214 -3.577033,0.976275 -3.618422,4.164445 -5.771224,5.738151 -0.829013,0.521053 -2.463328,0.284736 -2.083594,-1.322917 0.761336,-3.572319 3.114885,-5.455338 7.491016,-5.192448 z"
           id="path855"
           inkscape:connector-curvature="0"
           sodipodi:nodetypes="ccccc" />
        <path
           style="opacity:1;fill:#1a1a1a;fill-opacity:1;fill-rule:nonzero;stroke:none;stroke-width:3.32151;stroke-linecap:round;stroke-linejoin:round;stroke-miterlimit:4;stroke-dasharray:none;stroke-opacity:1;paint-order:normal"
           d="m 128.21484,303.60547 a 15.131826,12.551349 78.671371 0 0 -5.97265,1.73242 15.131826,12.551349 78.671371 0 0 -5.58008,8.59375 l 1.68945,2.48633 5.39258,10.3418 2.83789,6.40429 a 15.131826,12.551349 78.671371 0 0 9.05078,-1.21289 15.131826,12.551349 78.671371 0 0 4.05078,-20.3164 15.131826,12.551349 78.671371 0 0 -11.46875,-8.0293 z"
           transform="scale(0.26458333)"
           id="path863"
           inkscape:connector-curvature="0" />
        <path
           style="fill:#1a1a1a;fill-opacity:1;stroke:none;stroke-width:0.264583px;stroke-linecap:butt;stroke-linejoin:miter;stroke-opacity:1"
           d="m -13.559896,106.56615 c 0.08238,-0.9846 2.306493,-1.60321 4.9645352,-1.38081 2.6580427,0.22239 4.748435,1.20199 4.6660542,2.18659 -0.082381,0.98461 -2.3064925,1.60321 -4.9645352,1.38081 -2.6580422,-0.22239 -4.7484352,-1.20199 -4.6660542,-2.18659 z"
           id="path839"
           inkscape:connector-curvature="0"
           sodipodi:nodetypes="cc"
           inkscape:original-d="m -13.559896,106.56615 9.6305818,0.80578"
           inkscape:path-effect="#path-effect841" />
        <path
           style="fill:#1a1a1a;fill-opacity:1;stroke:none;stroke-width:0.264583px;stroke-linecap:butt;stroke-linejoin:miter;stroke-opacity:1"
           d="m 18.662094,105.37443 c 0.05325,-1.02068 2.506177,-1.72333 5.475277,-1.56842 2.9691,0.15491 5.335584,1.10901 5.282331,2.12969 -0.05325,1.02068 -2.506177,1.72333 -5.475277,1.56842 -2.9691,-0.15491 -5.335584,-1.10901 -5.282331,-2.12969 z"
           id="path843"
           inkscape:connector-curvature="0"
           inkscape:original-d="m 18.662094,105.37443 10.757599,0.56127"
           inkscape:path-effect="#path-effect845" />
        <path
           style="fill:#1a1a1a;fill-opacity:1;stroke:none;stroke-width:0.264583px;stroke-linecap:butt;stroke-linejoin:miter;stroke-opacity:1"
           d="m 2.9232605,146.44039 c -0.069169,-1.05467 1.3455007,-2.00709 3.1577454,-2.12595 1.8122447,-0.11885 3.3391891,0.64065 3.4083583,1.69532 0.069169,1.05467 -1.3455005,2.00709 -3.1577452,2.12595 -1.8122447,0.11885 -3.3391893,-0.64065 -3.4083585,-1.69532 z"
           id="path857"
           inkscape:connector-curvature="0"
           sodipodi:nodetypes="cc"
           inkscape:original-d="m 2.9232605,146.44039 6.5660999,-0.43063"
           inkscape:path-effect="#path-effect859" />
      </g>
    </g>
    <g
       id="g1629"
       style="fill:none;stroke:#1a1a1a;stroke-opacity:1"
       transform="matrix(1.0475369,0,0,1.0475369,2.2379915,2.0968195)">
      <g
         id="g4619"
         style="fill:none;stroke:#1a1a1a">
        <path
           style="fill:none;stroke:#1a1a1a;stroke-width:0.665;stroke-linecap:round;stroke-linejoin:miter;stroke-miterlimit:4;stroke-dasharray:none;stroke-opacity:1"
           d="m 7.1815475,129.74553 c -0.1546924,-3.81883 -0.5035378,-7.7701 -0.92999,-11.50591"
           id="path827"
           inkscape:connector-curvature="0"
           sodipodi:nodetypes="cc" />
        <path
           style="fill:none;stroke:#1a1a1a;stroke-width:0.665;stroke-linecap:butt;stroke-linejoin:miter;stroke-miterlimit:4;stroke-dasharray:none;stroke-opacity:1"
           d="m 4.0925646,115.12309 c -2.4109916,0.0924 -2.6543617,2.40384 -1.8750108,3.08543 0.4532088,0.39636 1.1336417,0.62569 1.6092028,0.60124 1.0874009,-0.0559 2.559573,-0.7151 2.838341,-0.62094 0.2749124,0.0928 0.6369788,0.21298 1.032607,0.33069 0.3785586,0.11263 0.7819188,0.25217 1.1661875,0.37757 0.4800822,0.15667 1.0495373,0.19571 1.5300219,0.11143 0.560434,-0.0983 0.99146,-0.5847 1.020329,-1.19814 0.04178,-0.88788 -0.758916,-2.04192 -3.2291137,-2.67058 -1.2469921,-0.26066 -2.7058108,-0.0524 -4.0925647,-0.0167 z"
           id="path831"
           inkscape:connector-curvature="0"
           sodipodi:nodetypes="cssssssscc" />
        <path
           style="fill:none;stroke:#1a1a1a;stroke-width:0.665;stroke-linecap:round;stroke-linejoin:miter;stroke-miterlimit:4;stroke-dasharray:none;stroke-opacity:1"
           d="m 0.23623512,140.35249 c 4.67769438,2.13883 7.61054738,1.27872 10.29985088,0"
           id="path833"
           inkscape:connector-curvature="0"
           sodipodi:nodetypes="cc" />
        <ellipse
           style="opacity:1;fill:none;fill-opacity:1;fill-rule:nonzero;stroke:#1a1a1a;stroke-width:0.665;stroke-linecap:round;stroke-linejoin:miter;stroke-miterlimit:4;stroke-dasharray:none;stroke-opacity:1;paint-order:normal"
           id="path847"
           cx="-8.0214262"
           cy="107.10499"
           rx="9.2468891"
           ry="8.3348331" />
        <ellipse
           style="opacity:1;fill:none;fill-opacity:1;fill-rule:nonzero;stroke:#1a1a1a;stroke-width:0.665;stroke-linecap:round;stroke-linejoin:miter;stroke-miterlimit:4;stroke-dasharray:none;stroke-opacity:1;paint-order:normal"
           id="path849"
           cx="23.991423"
           cy="104.50916"
           rx="8.8056698"
           ry="7.9898548" />
        <path
           style="fill:none;stroke:#1a1a1a;stroke-width:0.665;stroke-linecap:round;stroke-linejoin:miter;stroke-miterlimit:4;stroke-dasharray:none;stroke-opacity:1"
           d="m 1.1679777,106.17705 c 3.4887302,-4.52438 9.8583473,-6.4832 14.0177753,-1.66789"
           id="path851"
           inkscape:connector-curvature="0"
           sodipodi:nodetypes="cc" />
        <path
           style="fill:none;stroke:#1a1a1a;stroke-width:0.665;stroke-linecap:round;stroke-linejoin:round;stroke-miterlimit:4;stroke-dasharray:none;stroke-opacity:1"
           d="m -22.092708,120.45677 c -2.271772,-11.11798 1.391791,-29.812126 14.9489581,-42.002603 -1.4709031,-0.579618 -2.7728989,-1.328143 -3.8033851,-2.348177 2.558627,-0.919482 4.9189099,-1.84798 6.5153642,-2.811198 -0.7318725,-1.211607 -1.0099508,-2.536662 -0.8598958,-3.96875 3.9260857,2.206238 6.22620224,1.191843 6.4562201,0.870914 0.351618,-0.49059 -1.21805554,-3.732276 -3.4135118,-5.534195 3.15078861,-0.423331 5.0455055,1.715724 7.1437499,3.439583 1.5722925,-2.407482 2.8675317,-5.092017 6.6476564,-5.291666 -1.530618,1.98458 -3.2268116,3.868516 -2.5796877,7.176822 2.3634567,-1.071532 3.4261017,-2.076658 4.7955727,-3.108854 0.256063,1.240595 0.481628,2.524759 0.132292,4.630209 2.762292,-0.462799 5.608273,-0.972092 8.764323,-1.653646 -0.403004,1.531867 -1.316816,3.021168 -2.778125,4.464843 7.201468,0.794268 8.851911,4.683479 11.838545,10.220373 0.998292,1.850722 1.872434,3.785765 2.605436,5.651039 3.332093,8.479196 4.519651,17.961466 4.604256,22.324636 0.08318,4.28981 -0.428505,7.58294 0.195042,10.267 0.321753,1.38498 0.515322,2.60364 0.589443,3.70701 0.271395,4.04002 -0.766973,6.40367 -2.203793,9.3803 -1.305928,2.70546 -3.007569,4.86139 -5.143656,6.38482 -1.620239,1.15553 -3.554654,2.03832 -5.786049,2.56376 -1.141284,0.26875 -2.073014,0.70406 -2.887663,1.2088 -1.868548,1.15773 -3.767452,3.28199 -6.263045,4.6896 -3.506875,1.97802 -14.8250763,3.68254 -24.4651275,-1.46076 -1.3546653,-0.72277 -2.6277366,-1.59567 -3.8345265,-2.61009 -0.981946,-0.82542 -3.32135,-0.78133 -5.615965,-2.55732 -1.952522,-1.51121 -4.638683,-4.22815 -5.741975,-10.02046 -0.642297,-3.37207 -3.320603,-5.72847 0.139547,-13.61199 z"
           id="path861"
           inkscape:connector-curvature="0"
           sodipodi:nodetypes="cccccsccccccccssssssssssssssc" />
        <path
           style="fill:none;stroke:#1a1a1a;stroke-width:0.665;stroke-linecap:round;stroke-linejoin:miter;stroke-miterlimit:4;stroke-dasharray:none;stroke-opacity:1"
           d="m 35.289601,59.046599 c 5.551459,1.511114 4.570023,6.132476 5.146325,9.869155 0.133524,0.865753 0.251247,1.659161 0.384691,2.313261 0.175496,0.86023 0.333651,1.637394 0.513117,2.29635 0.176387,0.647652 0.3432,1.24646 0.5195,1.801267 0.272324,0.856993 0.521086,1.588003 0.781608,2.195013 0.702949,1.637855 1.120896,2.802079 1.343945,4.230766 0.139832,0.89567 0.338301,1.850201 0.70712,3.015619 0.400856,1.26665 0.793608,2.468415 1.198311,3.615418 2.138265,6.06023 3.564718,10.492162 4.516405,14.529672 0.380437,1.614 0.86064,3.08057 1.553597,4.43152 0.66692,1.30019 1.24988,2.48878 1.722528,3.59208 0.931174,2.17364 1.78658,3.88849 2.637517,5.24687 1.517807,2.42293 3.021395,3.45495 4.91538,3.39481 1.460713,-0.0464 2.647519,-1.28266 3.0717,-2.75685 0.01872,-0.0651 0.357652,-1.00026 0.833767,-2.57024 0.860184,-2.83645 0.923536,-7.81585 0.0127,-13.4989 C 64.874618,99.047832 64.554568,97.259817 64.125374,95.443579 63.673809,93.532672 63.017451,86.954876 60.886358,80.163857 59.434252,75.536525 58.269027,70.243436 55.969146,66.288436 54.326748,63.464081 51.656348,58.616174 47.958313,55.594139 45.07682,53.239382 39.819103,52.43127 34.741998,54.351746 29.379779,56.38007 27.512422,64.448167 22.654948,69.855209"
           id="path872"
           inkscape:connector-curvature="0"
           sodipodi:nodetypes="csssssssssssssssssssssc" />
        <path
           style="fill:none;stroke:#1a1a1a;stroke-width:0.665;stroke-linecap:butt;stroke-linejoin:miter;stroke-miterlimit:4;stroke-dasharray:none;stroke-opacity:1"
           d="M 25.401535,76.04141 C 29.248514,70.509696 32.541673,64.424162 39.002131,61.505927"
           id="path874"
           inkscape:connector-curvature="0"
           sodipodi:nodetypes="cc" />
        <path
           style="fill:none;stroke:#1a1a1a;stroke-width:0.665;stroke-linecap:butt;stroke-linejoin:miter;stroke-miterlimit:4;stroke-dasharray:none;stroke-opacity:1"
           d="m 29.006485,79.73819 c 3.149477,-5.279998 7.097856,-9.161917 11.236129,-12.71152"
           id="path876"
           inkscape:connector-curvature="0"
           sodipodi:nodetypes="cc" />
        <path
           style="fill:none;stroke:#1a1a1a;stroke-width:0.665;stroke-linecap:butt;stroke-linejoin:round;stroke-miterlimit:4;stroke-dasharray:none;stroke-opacity:1"
           d="m 40.892764,71.582165 c -1.834255,1.542334 -3.618472,3.184744 -5.190551,5.251429 7.697347,5.329002 3.90867,12.906667 -0.902893,14.621846"
           id="path878"
           inkscape:connector-curvature="0"
           sodipodi:nodetypes="ccc" />
        <path
           style="fill:none;stroke:#1a1a1a;stroke-width:0.665;stroke-linecap:round;stroke-linejoin:miter;stroke-miterlimit:4;stroke-dasharray:none;stroke-opacity:1"
           d="m -11.542448,77.594271 c -7.505335,0.931016 -12.09935,14.556455 -14.782608,20.328496 -0.605344,1.302176 -1.027741,2.645043 -1.22068,4.090723 -0.240376,1.80113 -0.473892,3.53308 -0.850922,5.1586 -0.4993,2.15267 -0.916297,4.20433 -1.3527,6.13192 -0.810874,3.58163 -1.359201,6.86802 -1.933524,9.85833 -0.594667,3.09623 -1.075632,5.8242 -1.644879,8.14048 -0.692349,2.81718 -1.190102,5.21917 -1.59813,7.28189 -0.228737,1.15635 -0.543455,2.15512 -1.002855,2.99173 -1.501864,2.73506 -2.854541,3.97654 -4.363298,3.98118 -1.618171,0.005 -2.976089,-1.60363 -3.975094,-4.33559 -0.61049,-1.66949 -1.137051,-3.75737 -1.540768,-6.15213 -0.280702,-1.66506 -0.564407,-3.47169 -0.8221,-5.38414 -0.144646,-1.07348 -0.151921,-2.17188 -0.03694,-3.29019 0.328785,-3.19772 0.688186,-6.50017 1.183048,-9.81787 0.373453,-2.50373 0.922893,-5.1411 1.651514,-7.82072 0.586554,-2.15715 1.302337,-4.31217 2.143809,-6.42912 0.570716,-1.43579 1.129158,-2.93316 1.695977,-4.456346 0.626442,-1.683408 1.392452,-3.308571 2.27642,-4.861546 0.603688,-1.060575 1.086186,-2.09494 1.493382,-3.096421 0.776695,-1.910244 1.603846,-3.692477 2.594034,-5.305696 0.923992,-1.505372 2.327095,-3.476294 4.047565,-5.419244 1.156114,-1.305615 2.297704,-2.66927 3.481955,-3.893635 4.092638,-4.231268 12.015599,-2.963649 16.1666532,0.441567"
           id="path880"
           inkscape:connector-curvature="0"
           sodipodi:nodetypes="cssssssssssssssssssssssc" />
        <path
           style="fill:none;stroke:#1a1a1a;stroke-width:0.665;stroke-linecap:butt;stroke-linejoin:miter;stroke-miterlimit:4;stroke-dasharray:none;stroke-opacity:1"
           d="m -13.161769,78.001386 c 1.282989,0.940736 2.484637,1.881471 3.5806105,2.822207"
           id="path882"
           inkscape:connector-curvature="0"
           sodipodi:nodetypes="cc" />
        <path
           style="fill:none;stroke:#1a1a1a;stroke-width:0.665;stroke-linecap:butt;stroke-linejoin:miter;stroke-miterlimit:4;stroke-dasharray:none;stroke-opacity:1"
           d="m -18.641251,82.681957 c 1.757653,0.135455 3.414567,1.882738 5.116939,2.902699"
           id="path884"
           inkscape:connector-curvature="0"
           sodipodi:nodetypes="cc" />
        <path
           style="fill:none;stroke:#1a1a1a;stroke-width:0.665;stroke-linecap:butt;stroke-linejoin:miter;stroke-miterlimit:4;stroke-dasharray:none;stroke-opacity:1"
           d="m -20.011821,84.714156 c 1.701134,1.128308 3.151928,2.465232 4.479908,3.904501"
           id="path886"
           inkscape:connector-curvature="0"
           sodipodi:nodetypes="cc" />
      </g>
    </g>
  </g>
  <g
     inkscape:groupmode="layer"
     id="layer7"
     inkscape:label="santa hat"
     style="display:none"
     transform="translate(47.079033,-57.555501)"
     sodipodi:insensitive="true">
    <path
       style="fill:#c83737;stroke:none;stroke-width:0.696612;stroke-linecap:round;stroke-linejoin:round;stroke-miterlimit:4;stroke-dasharray:none;stroke-opacity:1"
       d="m -10.043695,80.019106 1.9747705,-1.125966 5.058185,-2.251932 5.144798,-1.420448 5.4912483,-1.264547 6.4093442,-0.88345 5.681795,-0.329129 7.292795,0.67558 2.407834,1.125966 -0.970063,-3.048769 -1.437771,-3.083414 -2.009416,-3.707025 -3.637735,-4.503863 -3.343253,-2.702318 -2.840897,-1.48974 -4.088122,-0.970062 -4.5558302,-0.155904 -3.637737,0.640935 -4.7983463,1.714932 -3.585767,1.957448 -3.291285,2.182642 -3.6550575,2.702317 -1.62832,1.62832 1.039353,0.398419 1.09132,1.229901 1.02203,1.7669 0.39842,1.940125 5.3006995,-0.987385 -2.251931,3.793639 -1.333837,3.048769 -0.450386,1.576352 z"
       id="path4620"
       inkscape:connector-curvature="0" />
    <path
       style="fill:#f2f2f2;stroke:#1a1a1a;stroke-width:0.696612;stroke-linecap:round;stroke-linejoin:round;stroke-miterlimit:4;stroke-dasharray:none;stroke-opacity:1"
       d="m -10.615339,90.100824 c -1.272209,-2.852911 0.6567075,-2.99063 -0.123949,-6.306336 -0.318839,-1.354216 -0.981705,-2.141011 0.299568,-3.313149 3.3143375,-3.032032 11.34225153,-5.452034 19.3965128,-6.715581 10.9543932,-1.718518 21.9575222,-1.297825 21.2169292,2.63178 -0.909456,4.825607 1.795636,4.66195 0.873669,7.273492 -13.887577,-3.068132 -27.7751542,-0.849295 -41.66273,6.429794 z"
       id="path4604"
       inkscape:connector-curvature="0"
       sodipodi:nodetypes="csssscc" />
    <path
       style="fill:none;stroke:#1a1a1a;stroke-width:0.696612;stroke-linecap:round;stroke-linejoin:round;stroke-miterlimit:4;stroke-dasharray:none;stroke-opacity:1"
       d="m -10.43972,80.481338 c 1.1717305,-2.54515 3.1935755,-4.684197 5.3056935,-6.133161"
       id="path4606"
       inkscape:connector-curvature="0"
       sodipodi:nodetypes="cc" />
    <path
       style="fill:none;stroke:#1a1a1a;stroke-width:0.696612;stroke-linecap:round;stroke-linejoin:round;stroke-miterlimit:4;stroke-dasharray:none;stroke-opacity:1"
       d="m -9.1280805,78.240615 c 1.042476,-3.78098 4.253097,-9.365147 7.564714,-12.901316"
       id="path4610"
       inkscape:connector-curvature="0"
       sodipodi:nodetypes="cc" />
    <path
       style="fill:none;stroke:#1a1a1a;stroke-width:0.696612;stroke-linecap:round;stroke-linejoin:round;stroke-miterlimit:4;stroke-dasharray:none;stroke-opacity:1"
       d="m -3.8542885,68.121335 c -0.203106,-1.457933 -0.09527,-3.039687 0.405561,-4.628839"
       id="path4612"
       inkscape:connector-curvature="0"
       sodipodi:nodetypes="cc" />
    <path
       style="fill:none;stroke:#1a1a1a;stroke-width:0.696612;stroke-linecap:round;stroke-linejoin:round;stroke-miterlimit:4;stroke-dasharray:none;stroke-opacity:1"
       d="M -5.1190595,69.950333 -10.511403,71.08067"
       id="path4614"
       inkscape:connector-curvature="0" />
    <circle
       style="fill:#f2f2f2;stroke:#1a1a1a;stroke-width:0.69508;stroke-linecap:round;stroke-linejoin:round;stroke-miterlimit:4;stroke-dasharray:none;stroke-opacity:1"
       id="path4616"
       cx="-16.396708"
       cy="71.080666"
       r="5.885304" />
    <path
       style="fill:none;stroke:#1a1a1a;stroke-width:0.696612;stroke-linecap:round;stroke-linejoin:round;stroke-miterlimit:4;stroke-dasharray:none;stroke-opacity:1"
       d="M -14.059814,65.679216 C 6.1387378,47.649426 22.684845,53.176542 29.405129,74.528468"
       id="path4618"
       inkscape:connector-curvature="0"
       sodipodi:nodetypes="cc" />
  </g>
</svg>
